<svg width="31" height="31" viewBox="0 0 31 31" fill="none" xmlns="http://www.w3.org/2000/svg">
<g clip-path="url(#clip0_18_1195)">
<path d="M14.0416 22.7917H16.9583V16.9584H22.7916V14.0417H16.9583V8.20841H14.0416V14.0417H8.20829V16.9584H14.0416V22.7917ZM15.5 30.0834C13.4826 30.0834 11.5868 29.7067 9.81246 28.9532C8.03815 28.1754 6.49475 27.1303 5.18225 25.8178C3.86975 24.5053 2.82461 22.9619 2.04683 21.1876C1.29336 19.4133 0.916626 17.5174 0.916626 15.5001C0.916626 13.4827 1.29336 11.5869 2.04683 9.81258C2.82461 8.03827 3.86975 6.49487 5.18225 5.18237C6.49475 3.86987 8.03815 2.83689 9.81246 2.08341C11.5868 1.30564 13.4826 0.916748 15.5 0.916748C17.5173 0.916748 19.4132 1.30564 21.1875 2.08341C22.9618 2.83689 24.5052 3.86987 25.8177 5.18237C27.1302 6.49487 28.1632 8.03827 28.9166 9.81258C29.6944 11.5869 30.0833 13.4827 30.0833 15.5001C30.0833 17.5174 29.6944 19.4133 28.9166 21.1876C28.1632 22.9619 27.1302 24.5053 25.8177 25.8178C24.5052 27.1303 22.9618 28.1754 21.1875 28.9532C19.4132 29.7067 17.5173 30.0834 15.5 30.0834ZM15.5 27.1667C18.7569 27.1667 21.5156 26.0365 23.776 23.7761C26.0364 21.5157 27.1666 18.757 27.1666 15.5001C27.1666 12.2431 26.0364 9.48446 23.776 7.22404C21.5156 4.96362 18.7569 3.83341 15.5 3.83341C12.243 3.83341 9.48433 4.96362 7.22392 7.22404C4.9635 9.48446 3.83329 12.2431 3.83329 15.5001C3.83329 18.757 4.9635 21.5157 7.22392 23.7761C9.48433 26.0365 12.243 27.1667 15.5 27.1667Z" fill="#1D1B20"/>
</g>
<defs>
<clipPath id="clip0_18_1195">
<rect width="31" height="31" fill="white"/>
</clipPath>
</defs>
</svg>
