<svg width="35" height="35" viewBox="0 0 35 35" fill="none" xmlns="http://www.w3.org/2000/svg">
<path d="M32.0833 17.4999H23.3333L20.4167 21.8749H14.5833L11.6667 17.4999H2.91666M32.0833 17.4999V26.2499C32.0833 27.0235 31.776 27.7653 31.229 28.3123C30.6821 28.8593 29.9402 29.1666 29.1667 29.1666H5.83332C5.05977 29.1666 4.31791 28.8593 3.77093 28.3123C3.22395 27.7653 2.91666 27.0235 2.91666 26.2499V17.4999M32.0833 17.4999L27.0521 7.452C26.8106 6.96607 26.4384 6.55713 25.9772 6.27116C25.5161 5.98519 24.9843 5.83354 24.4417 5.83325H10.5583C10.0157 5.83354 9.48392 5.98519 9.02276 6.27116C8.56161 6.55713 8.18937 6.96607 7.94791 7.452L2.91666 17.4999" stroke="#1E1E1E" stroke-width="4" stroke-linecap="round" stroke-linejoin="round"/>
</svg>
